<?xml version="1.0" encoding="UTF-8"?>
<!DOCTYPE svg PUBLIC "-//W3C//DTD SVG 1.1//EN" "http://www.w3.org/Graphics/SVG/1.1/DTD/svg11.dtd">
<svg xmlns="http://www.w3.org/2000/svg" version="1.1" width="512px" height="512px" style="shape-rendering:geometricPrecision; text-rendering:geometricPrecision; image-rendering:optimizeQuality; fill-rule:evenodd; clip-rule:evenodd" xmlns:xlink="http://www.w3.org/1999/xlink">
<g><path style="opacity:0.996" fill="#013259" d="M 354.5,337.5 C 345.303,332.691 336.97,333.858 329.5,341C 312.971,357.195 296.804,373.695 281,390.5C 278.607,394.054 276.44,397.72 274.5,401.5C 273.833,401.5 273.5,401.833 273.5,402.5C 261.5,407.833 249.5,407.833 237.5,402.5C 233.41,395.332 228.577,388.665 223,382.5C 209.167,368.667 195.333,354.833 181.5,341C 173.924,333.882 165.591,332.715 156.5,337.5C 121.827,309.51 101.66,273.177 96,228.5C 95.3333,170.833 95.3333,113.167 96,55.5C 99.1667,43 107,35.1667 119.5,32C 210.167,31.3333 300.833,31.3333 391.5,32C 404,35.1667 411.833,43 415,55.5C 415.667,113.167 415.667,170.833 415,228.5C 409.34,273.177 389.173,309.51 354.5,337.5 Z"/></g>
<g><path style="opacity:1" fill="#f9b314" d="M 124.5,55.5 C 211.834,55.3333 299.167,55.5 386.5,56C 388.667,56.8333 390.167,58.3333 391,60.5C 391.667,113.833 391.667,167.167 391,220.5C 387.692,257.281 372.525,288.114 345.5,313C 316.5,336 287.5,359 258.5,382C 255.697,382.755 253.03,382.422 250.5,381C 222.122,357.62 193.456,334.62 164.5,312C 138.044,287.253 123.211,256.753 120,220.5C 119.333,167.167 119.333,113.833 120,60.5C 121.025,58.313 122.525,56.6464 124.5,55.5 Z"/></g>
<g><path style="opacity:1" fill="#eeeeee" d="M 355.5,177.5 C 345.919,191.597 336.086,205.597 326,219.5C 324.633,223.7 324.133,228.033 324.5,232.5C 324.463,246.509 324.129,260.509 323.5,274.5C 321.125,282.85 315.458,287.183 306.5,287.5C 289.265,282.941 272.265,277.607 255.5,271.5C 238.206,277.543 220.706,282.876 203,287.5C 194.876,286.532 189.709,282.199 187.5,274.5C 186.834,260.51 186.5,246.51 186.5,232.5C 186.867,228.033 186.367,223.7 185,219.5C 174.914,205.597 165.081,191.597 155.5,177.5C 154.066,169.874 156.399,163.708 162.5,159C 179.089,152.47 195.755,146.137 212.5,140C 223.594,125.817 234.927,111.817 246.5,98C 255.725,93.7641 263.558,95.5975 270,103.5C 279.5,115.667 289,127.833 298.5,140C 315.167,146.333 331.833,152.667 348.5,159C 354.601,163.708 356.934,169.874 355.5,177.5 Z"/></g>
<g><path style="opacity:1" fill="#04a0c8" d="M 304.5,211.5 C 302.99,212.836 301.323,214.003 299.5,215C 290.506,215.5 281.506,215.666 272.5,215.5C 272.5,223.833 272.5,232.167 272.5,240.5C 272.5,241.5 272.5,242.5 272.5,243.5C 270.99,244.836 269.323,246.003 267.5,247C 260.167,247.667 252.833,247.667 245.5,247C 243.251,245.648 241.584,243.815 240.5,241.5C 240.5,235.5 240.5,229.5 240.5,223.5C 240.5,220.833 240.5,218.167 240.5,215.5C 231.494,215.666 222.494,215.5 213.5,215C 211.251,213.648 209.584,211.815 208.5,209.5C 208.334,202.492 208.5,195.492 209,188.5C 210.167,186.667 211.667,185.167 213.5,184C 222.494,183.5 231.494,183.334 240.5,183.5C 240.334,174.494 240.5,165.494 241,156.5C 242.167,154.667 243.667,153.167 245.5,152C 252.833,151.333 260.167,151.333 267.5,152C 269.286,152.785 270.786,153.951 272,155.5C 272.5,164.827 272.666,174.161 272.5,183.5C 282.273,183.052 291.939,183.552 301.5,185C 302.333,185.833 303.167,186.667 304,187.5C 304.5,195.493 304.666,203.493 304.5,211.5 Z"/></g>
<g><path style="opacity:1" fill="#de9a18" d="M 155.5,177.5 C 165.081,191.597 174.914,205.597 185,219.5C 186.367,223.7 186.867,228.033 186.5,232.5C 185.698,231.048 185.198,229.382 185,227.5C 174.943,213.775 165.276,199.775 156,185.5C 155.503,182.854 155.336,180.187 155.5,177.5 Z"/></g>
<g><path style="opacity:1" fill="#de9a18" d="M 355.5,177.5 C 355.965,181.792 355.132,185.792 353,189.5C 344,202.167 335,214.833 326,227.5C 325.802,229.382 325.302,231.048 324.5,232.5C 324.133,228.033 324.633,223.7 326,219.5C 336.086,205.597 345.919,191.597 355.5,177.5 Z"/></g>
<g><path style="opacity:1" fill="#d1d1d1" d="M 208.5,209.5 C 209.584,211.815 211.251,213.648 213.5,215C 222.494,215.5 231.494,215.666 240.5,215.5C 240.5,218.167 240.5,220.833 240.5,223.5C 231.494,223.666 222.494,223.5 213.5,223C 209.083,219.57 207.416,215.07 208.5,209.5 Z"/></g>
<g><path style="opacity:1" fill="#ccd0d1" d="M 304.5,211.5 C 305.574,216.635 303.907,220.468 299.5,223C 290.84,223.5 282.173,223.666 273.5,223.5C 273.822,229.358 273.489,235.025 272.5,240.5C 272.5,232.167 272.5,223.833 272.5,215.5C 281.506,215.666 290.506,215.5 299.5,215C 301.323,214.003 302.99,212.836 304.5,211.5 Z"/></g>
<g><path style="opacity:1" fill="#d0d1d1" d="M 240.5,241.5 C 241.584,243.815 243.251,245.648 245.5,247C 252.833,247.667 260.167,247.667 267.5,247C 269.323,246.003 270.99,244.836 272.5,243.5C 273.574,248.635 271.907,252.468 267.5,255C 260.167,255.667 252.833,255.667 245.5,255C 241.083,251.57 239.416,247.07 240.5,241.5 Z"/></g>
<g><path style="opacity:1" fill="#dd9812" d="M 323.5,274.5 C 324.674,286.842 319.174,293.842 307,295.5C 289.575,291.081 272.408,285.748 255.5,279.5C 239.536,284.766 223.536,289.932 207.5,295C 193.317,295.65 186.651,288.816 187.5,274.5C 189.709,282.199 194.876,286.532 203,287.5C 220.706,282.876 238.206,277.543 255.5,271.5C 272.265,277.607 289.265,282.941 306.5,287.5C 315.458,287.183 321.125,282.85 323.5,274.5 Z"/></g>
<g><path style="opacity:0.994" fill="#efc79f" d="M 156.5,337.5 C 165.591,332.715 173.924,333.882 181.5,341C 195.333,354.833 209.167,368.667 223,382.5C 228.577,388.665 233.41,395.332 237.5,402.5C 237.995,404.482 238.495,406.482 239,408.5C 239.5,432.164 239.667,455.831 239.5,479.5C 212.833,479.5 186.167,479.5 159.5,479.5C 159.752,470.787 159.252,462.12 158,453.5C 156.587,450.339 154.92,447.339 153,444.5C 124.759,424.962 96.2588,405.795 67.5,387C 65.8978,385.065 64.7311,382.899 64,380.5C 63.3333,358.167 63.3333,335.833 64,313.5C 68.4731,304.518 75.6397,301.351 85.5,304C 89.2749,305.442 92.1083,307.942 94,311.5C 95.2911,328.434 95.9577,345.434 96,362.5C 96.4709,364.246 97.1376,365.913 98,367.5C 117.833,379.333 137.667,391.167 157.5,403C 172.503,405.661 178.337,399.495 175,384.5C 168.031,376.53 160.698,368.864 153,361.5C 147.776,352.471 148.943,344.471 156.5,337.5 Z"/></g>
<g><path style="opacity:0.994" fill="#efc79f" d="M 273.5,402.5 C 274.167,402.5 274.5,402.167 274.5,401.5C 276.44,397.72 278.607,394.054 281,390.5C 296.804,373.695 312.971,357.195 329.5,341C 336.97,333.858 345.303,332.691 354.5,337.5C 362.057,344.471 363.224,352.471 358,361.5C 350.302,368.864 342.969,376.53 336,384.5C 332.663,399.495 338.497,405.661 353.5,403C 373.333,391.167 393.167,379.333 413,367.5C 413.862,365.913 414.529,364.246 415,362.5C 415.042,345.434 415.709,328.434 417,311.5C 421.848,303.944 428.682,301.444 437.5,304C 442,305.833 445.167,309 447,313.5C 447.667,335.833 447.667,358.167 447,380.5C 446.269,382.899 445.102,385.065 443.5,387C 414.741,405.795 386.241,424.962 358,444.5C 355.806,447.554 354.139,450.888 353,454.5C 351.713,462.781 351.213,471.114 351.5,479.5C 324.833,479.5 298.167,479.5 271.5,479.5C 271.333,455.831 271.5,432.164 272,408.5C 272.505,406.482 273.005,404.482 273.5,402.5 Z"/></g>
</svg>
